<svg width="16" height="16" viewBox="0 0 16 16" fill="none" xmlns="http://www.w3.org/2000/svg">
<path d="M5.5 1H1.75C1.33579 1 1 1.33579 1 1.75V5.5C1 5.91421 1.33579 6.25 1.75 6.25H5.5C5.91421 6.25 6.25 5.91421 6.25 5.5V1.75C6.25 1.33579 5.91421 1 5.5 1Z" stroke="#EAA329" stroke-width="2" stroke-linecap="round"/>
<path d="M13.75 1H10C9.58579 1 9.25 1.33579 9.25 1.75V5.5C9.25 5.91421 9.58579 6.25 10 6.25H13.75C14.1642 6.25 14.5 5.91421 14.5 5.5V1.75C14.5 1.33579 14.1642 1 13.75 1Z" stroke="#EAA329" stroke-width="2" stroke-linecap="round"/>
<path d="M13.75 9.25H10C9.58579 9.25 9.25 9.58579 9.25 10V13.75C9.25 14.1642 9.58579 14.5 10 14.5H13.75C14.1642 14.5 14.5 14.1642 14.5 13.75V10C14.5 9.58579 14.1642 9.25 13.75 9.25Z" stroke="#EAA329" stroke-width="2" stroke-linecap="round"/>
<path d="M5.5 9.25H1.75C1.33579 9.25 1 9.58579 1 10V13.75C1 14.1642 1.33579 14.5 1.75 14.5H5.5C5.91421 14.5 6.25 14.1642 6.25 13.75V10C6.25 9.58579 5.91421 9.25 5.5 9.25Z" stroke="#EAA329" stroke-width="2" stroke-linecap="round"/>
</svg>
